<?xml version="1.0" encoding="UTF-8" standalone="no"?>
<svg
   xmlns:dc="http://purl.org/dc/elements/1.1/"
   xmlns:cc="http://creativecommons.org/ns#"
   xmlns:rdf="http://www.w3.org/1999/02/22-rdf-syntax-ns#"
   xmlns:svg="http://www.w3.org/2000/svg"
   xmlns="http://www.w3.org/2000/svg"
   xmlns:sodipodi="http://sodipodi.sourceforge.net/DTD/sodipodi-0.dtd"
   xmlns:inkscape="http://www.inkscape.org/namespaces/inkscape"
   inkscape:version="1.0beta2 (a2ee240, 2020-03-12)"
   sodipodi:docname="mandragora.svg"
   viewBox="0 0 5461.3335 5461.3335"
   height="5461.3335"
   width="5461.3335"
   id="svg10"
   version="1.1">
  <metadata
     id="metadata16">
    <rdf:RDF>
      <cc:Work
         rdf:about="">
        <dc:format>image/svg+xml</dc:format>
        <dc:type
           rdf:resource="http://purl.org/dc/dcmitype/StillImage" />
        <dc:title></dc:title>
      </cc:Work>
    </rdf:RDF>
  </metadata>
  <defs
     id="defs14" />
  <sodipodi:namedview
     inkscape:current-layer="g18"
     inkscape:window-maximized="1"
     inkscape:window-y="371"
     inkscape:window-x="1334"
     inkscape:cy="3085.8021"
     inkscape:cx="3656.8879"
     inkscape:zoom="0.10280324"
     inkscape:pagecheckerboard="true"
     showgrid="false"
     id="namedview12"
     inkscape:window-height="745"
     inkscape:window-width="1304"
     inkscape:pageshadow="2"
     inkscape:pageopacity="0"
     guidetolerance="10"
     gridtolerance="10"
     objecttolerance="10"
     borderopacity="1"
     bordercolor="#666666"
     pagecolor="#ffffff" />
  <g
     id="g18"
     inkscape:label="Image"
     inkscape:groupmode="layer">
    <path
       inkscape:connector-curvature="0"
       id="path40"
       d="m 1661.5431,3440.0184 c 19.7734,1.0667 59.9734,22.8 68.4667,41.48 4.0267,8.8667 -2.2933,19.7467 3.64,28.2534 24.24,34.7866 64.9067,43.1333 105.0267,36.6133 29.3866,-4.7867 85.84,-46.8267 101.6133,-72.1467 5.3733,-8.6266 -1.3733,-21.64 5.2667,-29.3066 6.2133,-7.2 19.9333,-3.88 28.04,-11.76 35.2666,-34.24 72.0533,-77.52 99.84,-118.0667 12.9733,-18.9467 12.84,-53.4667 30.92,-74.0533 18.48,-21.0534 56.8533,-14.04 80.8666,-21.8934 27.0134,-8.8133 46.6534,-32.0666 72.5467,-41.76 14.4533,-5.4133 32.6933,18.8267 44,24.0134 45.96,21.1333 94.8667,18.8 139.5733,37.28 9.2267,3.8133 58.08,31.8933 65.2534,15.4533 5.96,-13.7067 -42.3467,-39.8267 -53.0534,-41.6533 -64.4,-11 -168.72,-31.76 -191.2666,-104.5734 -20.2534,-65.3866 29.9333,-104.04 42.72,-160 9.2933,-40.6666 0.16,-84.96 9.1066,-125.1867 5.8534,-26.3866 32.1334,-50.2 43.3067,-75.1733 6.7867,-15.1467 3.8533,-35.6267 10.9467,-51.3333 4.44,-9.8134 23.24,-23.5734 31.0533,-34.1334 32.16,-43.4 63.68,-86.2666 114.28,-112.1333 30.1733,-15.4267 74.12,5.04 106.1867,-11.84 44.7333,-23.5467 82.56,-70.4 125.2,-98.04 8.6267,-5.5867 23.2667,-30.7867 33.5067,-30.56 7.44,0.1733 4.2933,23 4.2933,27.8533 0,21.9467 -9.48,72.9334 2.56,91.3067 28.76,43.8667 79.8267,63.0267 119.1733,93.5867 45.6267,35.4533 81.8267,86.5333 105.8534,137.7733 11.96,25.5333 22.4266,95.6667 59.08,97.3334 0,-28.4534 -16.8534,-53.0134 -28.3867,-78.6667 -29.4933,-65.6134 -59.24,-127.0134 -118.1467,-173.72 -56.64,-44.9067 -150.5066,-78.9334 -121.92,-172.8934 14.6267,-48.0666 44.8934,-84.8666 91.9734,-105.6 8.6133,-3.7866 24,-18.4533 33.6266,-15.9866 27.8267,7.1333 56.1067,18.6533 84.28,24.9866 12.7734,2.8667 29.1734,-3.64 41.0934,2.4667 68.2666,34.8933 110.1866,103.9467 175.28,146.12 51.36,33.2933 106.3466,45.28 164.9466,55.5467 55.52,9.7333 159.84,13.5466 214.3867,-0.24 28.8533,-7.3067 55.8267,-25.68 84.32,-34.4667 60.9867,-18.84 172.72,-22.6 228.88,11.0133 28.7867,17.24 67.0934,93.8934 65.5067,126.7734 -0.8267,16.96 -17.6533,33.6133 -18.44,50.68 -2.4533,53.0666 14.36,119.68 51.6133,158.84 34.4,36.1733 121.6934,62.3867 172.12,49.24 16.56,-4.3067 30.5734,-23.2267 44.5334,-32.1333 10.8533,-6.9334 43.04,-13.5734 48.8533,-24.6267 5.6533,-10.72 -2.2533,-26.72 -13.5067,-30.04 -17.0666,-5.04 -39.1333,2.16 -57.0133,-0.3867 -29.2267,-4.16 -73.0933,-31.0533 -91.5867,-53.5333 -41.4266,-50.3334 -27.3333,-139.0934 -31.1733,-200.6934 -3.36,-53.8133 -39.2933,-140.8133 -77.0933,-181.5866 -53.0134,-57.1867 -94.5334,-51.6267 -162.6934,-68.4134 -6.56,-1.6133 -58.4667,-19.88 -58.4933,-22.1066 -0.1734,-12.0667 30.88,-19.76 39.0267,-24.44 17.1333,-9.8534 50.8533,-55.8 46.9333,-78.0134 -3.5333,-20.0666 -20.3067,-22.2133 -31.1733,-35.4 -13.1067,-15.9066 -23.88,-37.4933 -32.32,-56.4933 -3.1867,-7.2 -15.3467,-30.4 -4.5067,-36.9867 2.1867,-1.3333 20.5333,24.36 24.5467,28.48 17.4933,17.9334 56.12,38.0934 82.12,29.6534 27.9733,-9.08 54.8666,-74.8 69.1066,-101 32.1867,-59.2267 57.2934,-123.9067 77.0934,-187.1867 15.6,-49.88 16.6533,-99.6667 37.04,-147.5334 20.88,-49.0133 69.7733,-90.7333 69.24,-148.32 -0.3867,-39.84 26.6,-82.8266 26.6,-125.3333 0,-9.1347 4,-30.2307 -1.7467,-37.6507 -19.8667,-25.6373 -59.56,50.156 -65.7333,61.244 -46.92,84.2734 -71.5467,185.9667 -144.3467,249.6867 -22.8267,19.9733 -49.72,33.9333 -71.1867,53.48 -2.84,2.5867 -19.0133,23.1734 -23.1466,18.3067 -4.7067,-5.52 14.8933,-44.9867 15.4,-53.0667 2.5866,-41.5067 -0.2934,-81.3467 8.64,-121.2667 5.8,-25.88 24.3733,-55 26.0266,-81.4133 4.5334,-72.3893 29.92,-145.5587 17.52,-219.852 -3.4,-20.3427 -53.5866,5.136 -52.44,-8.1267 1.84,-21.3306 29.0667,-37.8866 40.88,-53.948 7.7467,-10.5253 6.8267,-32.6853 12.88,-45.8693 5.0934,-11.0973 19.0934,-16.304 23.9334,-27.3373 7.2266,-16.4347 1.32,-46.9441 1.32,-64.8534 0,-59.4787 0.9333,-121.31466 -16.4534,-176.196 -19.6266,-61.89066 -6.8266,-133.012 -26.6666,-194.66667 -3.6267,-11.264 -2.7067,-50.56267 -15.7867,-54.612 -24.2,-7.48667 -32.7733,24.972 -36.5467,41.588 -12.3733,54.55867 -36.52,126.32934 -36.5466,181.22001 -0.12,223.63866 -74.8801,427.84266 -223.9067,596.92006 -36.48,41.4 -63.5734,114.44 -123.3334,131.3466 -7.36,2.0934 -14.6533,-10.44 -15.24,-16.2933 -2.68,-26.28 -16.92,-63.6 -8.52,-89.1733 11.1467,-33.88 4.3467,-66.7107 8.5734,-102.7694 4.4533,-37.9666 17.4,-77.5026 25.8666,-114.7853 8.3467,-36.676 7.6934,-77.492 25.36,-111.0573 5.7067,-10.8667 32.44,-87.3161 13.5334,-92.2987 -26.7467,-7.0494 -52.84,26.5586 -69,42.8493 -57,57.48 -61.0134,143.1494 -113.24,201.56 -7.92,8.8627 -39.64,77.2507 -56.48,69.876 -10.84,-4.748 -7.6667,-68.772 -12.92,-81.1333 -13.6134,-31.964 -10.96,-67.2293 -16.36,-101.6467 -7.2934,-46.6053 -23.28,-96.5173 -26.24,-144.0747 -2.0667,-33.1813 7.3466,-72.91729 -0.6534,-105.13729 -2.2,-8.86534 -26.76,-10.48667 -32.1866,-4.17067 -18.9067,22.04 -24.8534,57.75196 -40.5467,82.32136 -2.6133,4.0933 -18.96,25.16 -23.2533,15.792 -4.2134,-9.1894 12.48,-27.1814 15.7466,-35.7694 17.6134,-46.35196 45.88,-79.07729 69.5867,-121.7093 5.4933,-9.86533 -0.4933,-23.34133 2.76,-33.892 13.5867,-44.084 15.5733,-104.436 16.4667,-150.75467 0.56,-28.77333 33.2266,-57.14533 43.8,-81.812 24.4,-56.88534 20.8,-125.632 27.04,-187.50801 3.6,-35.81333 20.1733,-60.97466 5.3466,-98.68 -9.0933,-23.14533 -5.76,-80.41867 -39.1066,-88.26134 -8.6667,-2.03866 -17.56,31.15067 -18.7334,38.92534 -3.3066,22.08533 -20.76,42.928 -25.8,64.19867 -4.9466,20.83733 4.7734,35.71867 -11.8266,52.87067 -37.92,39.192 -92.3467,58.05866 -126.48,100.14 -18.6,22.94133 -25.8934,58.32533 -41,83.89867 -41.5067,70.29467 -81.1867,138.38 -114.12,210.748 -16.3067,35.82001 -62.36,70.51201 -69.3867,110.87467 -8.5067,48.85601 25,79.32801 35.0267,122.7187 5.7733,24.9186 -6.9334,52.62 7.1733,75.1133 4.52,7.2054 7.4,62.0134 -1.6533,64.6107 -10.1734,2.9187 -13.6134,-33.956 -16.88,-38.9107 -17.8,-27.036 -36.5867,-65.796 -49.4267,-95.9093 -3.8533,-9.0347 -3.7733,-33.2147 -15.0933,-37.4614 -29.68,-11.13729 -38.4934,41.812 -67.4667,32.9 -14.9733,-4.604 -15.2133,-22.644 -26.3733,-31.1186 -25.24,-19.17336 -52.6267,-39.36136 -80.8667,-54.13469 -62.3067,-32.60001 -139.28,-30.08401 -203.3734,-56.53601 -14.4266,-5.95466 -21.7733,-24.07066 -35.1466,-31.81066 -9.2667,-5.36 -36.1734,5.97866 -39.4,2.59466 -11.3867,-11.94 2.56,-53.19067 -2.48,-69.304 -8.68,-27.72533 -33.0934,-47.088 -42.6134,-73.796 -14.1866,-39.776 -18.3866,-78.69734 -27.72,-119.57067 -6.56,-28.66267 -7.7466,-73.01734 -18.3333,-99.73867 -21.0133,-53.008 -48.6,-101.90534 -61.6667,-157.51201 -4.36,-18.50266 -32.9066,-75.34133 -55.12,-67.30666 -10.5466,3.80933 -3.28,22.54933 -7.5333,30.632 -14.9867,28.47733 -15.4667,88.532 -15.4667,121.812 0,47.676 -19.0533,100.23867 -26.3333,146.728 -10.08,64.33201 -4.72,127.46534 -9.6133,193.26001 -2.36,31.62933 -15.4267,66.984 -7.5067,101.14934 5.0267,21.668 35.48,61.18267 53.4,73.90267 9.2267,6.56 40.76,19.568 40.7333,34.196 0,-1.56534 -83.8933,-35.664 -93.3333,-17.896 -6.36,11.968 -1.3467,37.87333 -1.3467,51.32669 0,53.696 13.3334,112.556 36.1067,160.8573 26.1733,55.4907 57.0133,117.0387 89.24,169.476 28.6267,46.564 59.4,82.0654 68.9867,137.6667 4.5333,26.28 16.7066,47.1733 17.7066,74.6533 0.1467,3.9867 8.0934,16.0934 5.3334,18.1734 -4.4667,3.3733 -22.5734,-18.68 -25.76,-21.9067 -22.8267,-23.2533 -54.2667,-47.6267 -59.4267,-81.6533 -8.6933,-57.3654 -54.92,-123.08 -86.6933,-171.284 -41.4934,-62.9547 -68.9467,-132.688 -114.1334,-193.3387 -17.2133,-23.0907 -32.1466,-92.9307 -61.0133,-102.436 -6.92,-2.2774 -26.2133,-3.544 -29.3333,4.788 -6.24,16.66 6.6933,25.4146 8.1333,39.684 3.3733,33.48 9.1867,91.852 -0.6933,123.8987 -1.8667,6.048 -10.1334,56.82 -11.6534,57.2706 -14.6666,4.3414 -27.32,-31.8893 -46.4933,-4.568 -8.7733,12.5094 14.44,64.74 11.2533,66.528 -1.1333,0.64 -30.88,-16.5066 -41.44,-14.816 -8.32,1.3307 -14.56,15.9787 -22.6666,14.2174 -18.1067,-3.9334 -17.5467,-24.5894 -22.76,-36.732 -16.76,-38.9907 -4.44,-75.0747 -16.9067,-113.5774 -5.72,-17.7106 -39.84,-42.4387 -52.3067,-54.7387 -33.84,-33.4093 -67.9466,-80.68 -108.16,-106.03196 -45.8,-28.872 -92.6267,-32.51067 -141.1867,-48.46933 -44.8666,-14.74534 -91.12,-35.28667 -137.6,-43.44134 -46.96,-8.23733 -103.9666,0.44667 -151.8666,0.44667 -56.9614,0 -112.7294,12.15333 -164.2347,33.35466 -14.1267,5.81467 -40.5147,5.99334 -46.7653,24.29467 -10.3907,30.416 47.084,29.01734 65.6666,29.01734 27.5254,0 68.4054,-7.696 94.4707,1.00533 29.632,9.892 53.4827,35.85336 84.392,43.66936 14.3533,3.6306 63.9907,1.428 70.164,21.2653 2.96,9.5133 -46.976,-4.2987 -41.292,24.6133 4.244,21.5867 41.7053,52.3974 56.172,68.8774 30.1067,34.3133 61.52,79.3653 83.3733,119.6107 65.4,120.4226 56.6267,267.7053 136.8,382.692 11.7734,16.8666 41.88,10.2666 59.9201,10.2666 52.4266,0 98.12,-0.6933 145.6533,17.0534 10.76,4.0266 44.08,-7.9467 47.5333,8.4 3.1334,14.72 -31.1066,17.6933 -39.5333,21.1866 -36.88,15.24 -79.0667,16.2134 -120.32,16.0267 -9.68,-0.04 -36.0533,-19.1333 -41.7733,-3.5867 -7.8534,21.2934 10.0266,36.0934 15.56,54.3467 17.7733,58.4534 41.9333,104.2934 73.6,157.8934 10.0133,16.9466 34.64,30.1466 33.8133,52.68 -0.5733,16.0666 -47.64,32.52 -60.2933,41.4533 -47.32,33.3733 -75.0534,74.0533 -105.0134,123 -51.5733,84.2533 -40.0933,170.32 -56.3067,263.48 -13.44,77.2533 -61.4266,199.4267 -120.7733,250 -28.5333,24.3067 -68.9333,65.7733 -94.7067,93.56 -5.9066,6.3733 -9.6066,26.7067 -2.6226,33.6933 14.356,14.36 51.0493,6.3734 66.5826,2.9467 51.2534,-11.3467 91.1334,-36.7333 122.5067,-82.4 8.7467,-12.7333 4.5467,-36.4 14.3467,-48.8 19,-24.0267 45.04,2.4267 57,-13.9467 48.4933,-66.3866 50.7733,-159.08 88.2,-229.9866 4.84,-9.1467 18.8133,-53.2 23.7733,-56.3867 9.2667,-5.9733 23.72,0.3733 33.96,-2.8267 32.6934,-10.2266 68.3734,-25.8933 105.36,-16.56 25.96,6.56 41.8267,29.3867 63.4667,42.0667 31.2933,18.32 64.6133,28.7333 100.6533,28.7067 53.0267,-0.04 136.6267,-40.3867 178.0667,-75.0534 28.2667,-23.64 69.72,-76.3733 106,-84.3866 17.52,-3.88 42.3467,17.72 57.7467,24.8266 34.4933,15.9334 72.8533,27.4667 109.0533,36.6267 48.24,12.2 139.4933,-1.4933 143.7067,65.9867 1.3866,22.3466 -0.92,78.7733 -11.16,98.44 -28.2134,54.1866 -92.32,78.7866 -138.8,114.16 -27.5867,20.9866 -55.7334,65.7466 -69.8134,97.2133 -8.8533,19.76 -10.88,41.9067 -21.8533,61.8533 -11.6533,21.2 -35.0133,40.7067 -40.8,64.4534 -9.7333,39.88 1.7333,88.56 -10.36,127.7867 -8.9333,29 -38.0267,55.7466 -42.7867,85.5466 -5.0933,31.88 -3.44,74.3734 -0.1466,106.5067 0.9066,8.9467 17,23.9867 14.32,32.5733 -0.8667,2.7867 -32.8934,11.76 -38.1734,14.6534 -17.84,9.7733 -34.3733,27.6266 -55.08,32.2666 -29.96,6.7067 -53.48,-7.56 -80.0266,13.24 -10.8267,8.48 -33.4934,35.5067 -35.56,48.6934 -1.4134,8.9733 7.6933,30.16 4.3066,35.04 -28.24,40.6 -64.8933,86.44 -101.8666,119.72 -7.0134,6.32 -17.96,2 -23.96,8 -7.5467,7.56 0.64,22.2266 -6.2267,30.92 -24.5467,31.12 -64.0133,53.0933 -98.24,70.8933 -24.24,12.6 -60.4933,-19.0133 -72.9067,-37.3067 -8.72,-12.84 -3.4266,-33.4 -13.56,-47.7466 -23.1733,-32.8667 -90.5733,-51.5734 -125.8667,-26.9867 -5.48,3.8133 -5.76,17.6133 -0.9466,22.08 7.4133,6.88 22.8933,7.0133 29.6,14.3867 24.6,27.08 20.2667,66.04 30.2133,97.4133 1.9067,6.0267 22.8934,29.2 22.96,29.0133 -1.6266,5.36 -23.4133,11.3467 -28.6933,13.8 -27.9333,12.9734 -63.4,16.0534 -95.1467,16.0534 -41.3067,0 -73.1333,-30.2 -112.08,-35.1067 -12.1333,-1.5333 -17.1733,7.16 -27.9467,8.2533 -19.88,2.0267 -46.0533,0.7467 -58.3333,20.88 -12.44,20.36 -11,49.76 -21.4533,72.16 -7.32,15.72 -27.0134,42.96 -24.8134,60.48 1.4534,11.5734 15.4134,18.4 24.8934,11.1867 21.0133,-15.9867 35.48,-64.8267 71.6666,-58.7733 10.48,1.76 14.5467,14.04 24.2667,17.2533 6.8533,2.2667 20.04,-2.9467 25.2533,2.36 5.3867,5.4933 -32.1866,29.9333 -37.2666,35.0533 -37.88,38.3067 -33.3734,81.32 -79.1734,116.1734 -4.8533,3.6933 -4.9733,15.16 -1.6,19.8533 9.2667,12.88 35.8934,-1.28 46.0934,-2.2667 29.8,-2.8933 52.9733,9.0667 85.0666,-4.1866 17.6267,-7.2667 10.2534,-21.7867 19.4267,-33.04 13.8933,-17.0667 35.6267,-30.44 53.3467,-42.36 41.44,-27.84 101.7467,-2.6134 147.2933,-11.1067 12.4934,-2.32 45.4667,-21.7733 57.04,-16.76 11.16,4.84 5.64,40.3333 5.6534,50.6133 0.013,19.3867 12.5333,32.24 8.92,53.3067 -5.32,31.0667 -57.3734,95.76 7.0533,89.1734 22.8533,-2.3334 10.96,-25.64 23.2533,-33.7334 18.7734,-12.3733 50.4934,-19.24 63.5467,-38.7733 33.5333,-50.16 19.1067,-115.3734 60.3067,-165.36 13.8933,-16.8667 61.72,-46.8934 82.3066,-53.0534 34.64,-10.3466 60.8934,0.64 88.7734,-31.12 19.12,-21.7866 -4.16,-35.0933 2.0666,-52.2533 11.5467,-31.7733 63.5734,-68.1867 94.44,-68.1867 8.9067,0 31.2667,-4.0666 35.9867,5.7467 22.7733,47.28 -61.4533,88.16 -51.1733,138.0667 4.9866,24.2666 31.76,-11.7467 34.3066,-4.7734 6.9867,19.0934 2,55.72 -11.12,70.7467 -11.4933,13.1333 -33.3066,13.2267 -31.9066,36.8533 1.0133,16.9334 26.88,4.2534 25.6933,19.9734 -0.5067,6.64 -27.6267,28.6 -33.08,38.0666 -32.6133,56.6667 -82.7333,101.1201 -114.6667,158.6667 -15.6666,28.2534 6.8134,75.1067 -2.92,105.7867 -19.4266,61.32 -62.04,112.96 -78.1066,177.5333 -7.0534,28.3467 8.2,50.5867 8.32,76 0.1066,24.9467 -14.2667,44.0934 -8.6934,70.5334 1.96,9.32 14.1867,9.8666 21.6934,6.8266 26,-10.5066 42.6266,-30.8133 55.6133,-54.0133 4.9067,-8.7867 15.9333,-36.6533 25.04,-40.2533 8.6,-3.4 27.8267,27.68 30.3467,35.5466 12.24,38.2667 40.4533,53.56 25.6666,98.56 -18.88,57.4267 -83.9333,70.1867 -129.0266,96.88 -55.8134,33.04 -90.48,88.12 -140.9334,127.2 -20.8666,16.16 -45.9333,10.44 -65.8533,29.96 -32.0667,31.44 40.96,20.1867 44.2533,34.1867 6.68,28.3467 -35.04,69.7867 -53.9733,86.0133 -25.0533,21.4667 -70.2933,42.48 -100.6133,55.2534 -9.48,4 -20.7467,-1.7867 -29.5734,4.7733 -18.4666,13.7467 -7.28,42.6133 -25.5733,60.9067 -12.56,12.56 -58.52,62.6133 -43.76,82.6133 5.0533,6.8534 27.5333,2.28 35.3867,2.36 41.52,0.4 81.9733,-28.6133 115,-49.3867 7.2933,-4.5866 42.8933,-6.7066 48.3866,0.9334 12.1734,16.88 3.7467,46.2533 14.2267,62.8667 13.2533,21.0266 45.0667,28.1733 60.0533,45.88 9.1734,10.8533 11.68,40.76 16,54.4133 5.28,16.7467 -6.32,70.6133 13.6667,79.28 63.7867,27.7067 45.56,-93.6 47.76,-126 0.76,-11.2 -8.5333,-16.88 -8.32,-28 2.1467,-110.2134 -11.1733,-272.68 111.9867,-321.3467 29.2,-11.5333 23.68,58.1333 30.7066,74.36 19.9067,45.9867 39.1867,80.9067 59.72,124.6933 4.8667,10.3867 -3.5333,25.4667 2.32,34.88 5,8.04 17.2,0.5467 23.1467,8.08 11.7333,14.8667 -11.9467,51.6267 18.64,48.4801 17.6,-1.8134 9.3733,-81.4001 9.3733,-97.1467 0,-78.5334 0.68,-155.64 25.7867,-234.8667 5.3067,-16.7333 -6.2133,-40.8 4.44,-55.76 28.1333,-39.56 84.3333,-42.92 113.8667,-86.0267 3.3066,-4.8133 24.08,-29.12 29.8,-26.4533 11.4133,5.32 18.24,33.5333 21.6533,44.24 14.8533,46.52 3.72,131.12 70.9867,119.8667 9.3866,-1.56 5.28,-11.8934 12.5733,-15.52 15.0667,-7.5067 25.2267,-4.4667 36.7867,-21.08 8.28,-11.8667 2.7733,-40.96 2.7733,-55.0667 0,-46.0133 -13.5467,-89.7067 -28.36,-131.7733 -8.3867,-23.7867 -24.9867,-37.5467 -24.9733,-65.56 0.013,-11.1467 6.32,-37.64 13.52,-45.8934 8.5866,-9.8266 35.92,-21.7466 29.1466,-39.2933 -5.0533,-13.08 -21.7466,-21.6 -30.0666,-32.6133 -26.0534,-34.44 -54.72,-95.8534 -37.9467,-135.2134 12.5467,-29.4133 42.9467,-43.1466 58.3867,-69.9866 6.5333,-11.36 13.9333,-43.3067 25.96,-48.9867 56.4266,-26.6533 124.8133,21.6933 178.4533,34.0933 39.88,9.2267 79.7467,-9.4533 115.9467,-17.56 29.4133,-6.5866 73.88,-3.4133 103.92,-0.36 19.44,1.9734 33.04,30.3734 53.5467,35.2534 13.3733,3.2 72.64,3.88 79.6,13.2266 5.8533,7.8667 1.5333,29.6667 1.5333,39.3334 0.027,59.8 -73.8267,92.1333 -87.44,149.5333 -9.0533,38.1333 14.1333,84.68 -21.4267,114.4533 -28.5333,23.9067 -85.5866,15.6134 -114.3066,44.56 -19.32,19.4667 -22.88,69.8 -31.8267,95.7734 -2.2933,6.6666 -3.7467,26.2933 4.7467,29.0533 62.4,20.2667 19.0133,-72.4 50.1733,-102.6933 12.6533,-12.3067 39.7867,-32.4267 57.4667,-37.8 13.9466,-4.24 40.5866,-0.84 51.8133,-11.6934 34.6667,-33.56 8.7333,-74.68 21.0133,-114.4 13.2267,-42.8533 53.0534,-70.24 76.4,-106.1333 16.2,-24.8933 17.84,-85.8667 10.16,-114.9867 -2.4266,-9.2266 -21.5866,-5.6666 -28.7733,-5.6666 -23.3333,0 -54.5467,-7.2534 -73.88,-21.04 -41.6,-29.68 -116.96,-32.8534 -171.3333,-23.4134 -23.28,4.0534 -50.52,19.2 -74.7867,17.6934 -31.28,-1.9467 -68.2,-24.76 -97.6534,-34.9067 -36.5466,-12.5733 -82.6266,-9.5867 -119.4933,-0.44 -14.36,3.56 -19.4667,40.9733 -28.72,51.5733 -43.24,49.56 -87.92,94.9067 -56.6667,164.72 10.5334,23.5334 23,51.6534 37.16,73.2 4.1334,6.3067 21.2267,16.0534 21.08,23.88 -0.067,4 -18.5333,10.1734 -21.8266,16.0934 -8.7467,15.68 -6.5067,36 -12.1067,52.4533 -2.6533,7.8133 -12.8933,5.16 -15.5467,12.52 -7.16,19.7867 12.9334,62.4533 16.8534,83.5067 1.7066,9.24 12.0533,5.3466 15.6933,12.6 12.8,25.4266 49.5467,104.9866 25.2133,133.3466 -27.56,32.1067 -47.3066,7.3867 -58.6533,-20.5466 -10.32,-25.4 7.0267,-106.3867 -33.5733,-116.68 -53.2,-13.48 -67.5467,51.2 -101.7867,75.7866 -24.36,17.5067 -57.8267,21.2667 -79.5333,43.64 -18.1334,18.7067 -2.88,67.6934 -6.36,91.9467 -2.24,15.5867 -22.5867,2.1867 -26.08,15.0133 -8.4267,30.8934 -0.7467,66.48 -8.7734,97.2534 -2.1733,8.3333 -8.0933,68.5733 -12.6266,70.64 4.5733,-2.08 -32.0134,-46.5734 -32.52,-53.5067 -1,-14.0133 -19,-31 -25.44,-46.8667 -13.6934,-33.76 -4.0934,-103.56 -67.4934,-72.3466 -61.1733,30.1333 -105.48,100.76 -109.72,168.56 -1.9866,31.7733 9.24,62.3733 9.24,95.9866 0,22.1067 -9.3333,39.4401 -9.3333,62.6667 v 90.6667 c 0,3.72 2,32.32 -6.0133,28.4267 -7.3334,-3.5467 -9.64,-77.64 -13.5334,-89.44 -4.0666,-12.36 -26.6266,-43.4534 -39.2666,-48.04 -10.2934,-3.7334 -27.5467,5.1866 -35.9867,-3.96 -11.0533,-11.9867 -4.4133,-54.6801 -13.2133,-71.7601 -4.28,-8.3066 -25.52,-4.56 -33.32,-4.56 -36.56,0 -61.48,6.32 -92.2267,24.08 -3.84,2.2134 -38.68,6.04 -38.32,7.1734 -2.5867,-8.0534 26.8933,-36.5734 31.16,-43.9334 6.84,-11.84 -3.68,-28.68 5.2933,-39.5866 26.6534,-32.4 94.76,-40.2534 129.3334,-68.0534 20.1733,-16.24 49.84,-48.76 52.5733,-75.7066 1.2267,-12.0534 -9.8267,-61.7067 -6.4533,-65.8134 6.32,-7.6933 27.3466,-11.3733 37.3066,-21.0133 41.3867,-40.04 82.8667,-85.6 132.48,-113.7733 43.9734,-24.96 110.9334,-39.84 127.76,-95.6934 18.04,-59.8666 -8.28,-178.4 -86.8666,-170.16 -10.6667,1.12 -46.7334,74.08 -52.8,65.68 -8.9734,-12.4266 -0.027,-43.1066 -1.32,-57.8 -4.32,-49.12 15.12,-121.92 36.8666,-171.7466 5.8134,-13.32 20.7467,-22.7734 24.56,-37.8534 8.0934,-32.04 -6.16,-68.8 1.2,-101.0133 5.7867,-25.32 25.5067,-39.1867 40.3067,-57.04 33.1733,-40 85.6533,-97.48 108.3333,-140.9734 8.96,-17.2 -8.9733,-40.8 -5.04,-53.4666 1.7867,-5.7734 18.4534,-15.9867 22.5334,-26.12 8.0666,-20.0667 2.6,-59.5467 1.2266,-81.1734 -0.7866,-12.4666 -19.5733,-9.24 -17.24,-21.2933 7.1734,-37.08 59.6934,-69.32 33.32,-117.96 -4.5733,-8.4533 -92.5333,-7.8 -101.72,-1.8133 -18.5866,12.0933 -52.1733,43.5866 -62.6933,63.0666 -12.2533,22.72 -5.2933,42.2267 -28.7733,62.9867 -14.76,13.0533 -31.72,7.9467 -47.6534,14.0933 -28.68,11.0534 -69.0666,36.2 -93.0266,56.08 -56.48,46.8534 -32.2534,176.4667 -118.4134,196.5467 -9.5333,2.2267 -6.3733,-27.8 -6.3733,-33.0533 0,-30.4534 -8,-55.0667 -8,-85.3334 0,-7.4666 3.2667,-25.12 -5.7467,-28.44 -29.2933,-10.8 -63.6,10.28 -90.3066,16.44 -47.3867,10.9067 -105.4001,-15.4266 -148.9467,11.96 -32.32,20.3334 -83.1467,101.64 -123.3067,65.3734 -7.6133,-6.88 5.4933,-20.5467 5.6267,-29.3334 0.8133,-56.5066 73.9733,-62.6933 70.5866,-115.9866 -1.04,-16.3467 -18.76,-7.7467 -29.0933,-12.0134 -8.1333,-3.36 -12.0267,-13.7333 -20.4667,-16.1733 -11.08,-3.2133 -54.56,9.0533 -55.9466,-9.1733 -0.5467,-7.24 7.6933,-12.3067 8.1733,-20 0.4133,-6.6934 -1.2667,-14.7334 2.1467,-20.84 13.3733,-23.8534 45.32,-26.76 69.88,-21.2667 23.4,5.24 45.4666,22.04 69.4666,25.7867 38.68,6.0666 75.4934,-7.32 110.6001,-8.9334 32.9066,-1.5066 77.4666,-11.76 66,-54.4933 -1.9867,-7.4 -19.0134,-18.4667 -24.1334,-28.56 -6.2933,-12.4 2.84,-28.08 -6.0133,-39.8133 -7.48,-9.9334 -28.4133,-68.56 -21.1867,-54.5334 M 3308.6098,296.91965 c 9.8934,-1.348 9.56,33.136 12.04,39.09867 14.1867,34.04667 4.16,51.4 1.8934,84.03067 -1.36,19.69867 5.64,44.87733 -0.6667,63.77333 -13.3333,39.91067 -12.6933,83.67734 -26.68,123.88134 -9.0533,26.044 -36.36,47.22134 -42.9867,75.09467 -14.4933,61.07734 -0.4266,130.30934 -19.5466,190.40667 -20.32,63.85601 -96,113.31067 -86.88,189.4347 1.6,13.2813 30.2133,12.2413 39.5333,7.488 12.2667,-6.2574 54.7733,-83.65736 55.6667,-82.45869 11.92,16.07999 1.2133,69.53999 1.9333,89.67729 2.08,57.5681 18.04,121.9001 26.96,179.9801 5.8,37.8733 24.52,80.8773 26.2667,118.7053 2.36,51.0147 -18.4,115.0933 -26.2667,165.3867 -23.44,149.6266 -31.0533,304.2533 -108.8667,439.24 -72.7866,126.28 -189.6133,236.1333 -305.2,324.0533 -59.5066,45.2667 -125.7466,94.4534 -180.0133,144.48 -25.2667,23.3067 -68.8134,72.5067 -104.9334,73.0667 -4.04,0.067 -8.8533,-2.24 -6.9466,-6.9867 5.1733,-12.96 17.96,-21.9066 22.9733,-34.12 5.0667,-12.3066 2.5467,-47.36 13.9867,-55.0266 58.48,-39.2 139.3333,-84.88 163.12,-158.2 29.7333,-91.6667 -36.72,-169.2534 -68.9734,-245.56 -54.9066,-129.8267 -104.2,-281.2134 -89.2933,-427.6534 15.0133,-147.6 61.64,-278.6373 131.2667,-412.252 24.5067,-47.012 53.4533,-113.932 101.2267,-143.3947 15.32,-9.4467 21.2533,26.4827 25.9466,36.812 16.8,37.0347 33.6934,79.928 53.3467,115.5867 4.36,7.9133 37.32,7.8067 40.6133,-1.108 12.3467,-33.4627 -5.2,-78.9013 -7.16,-110.3507 -1.1866,-19.1387 4.9867,-44.22 -1.0933,-62.4573 -7.7467,-23.19469 -38.48,-62.22669 -34.6667,-86.80136 6.0134,-38.808 50.9734,-76.11467 68.4134,-109.624 20.5466,-39.46934 33.5733,-85.06534 57.1333,-125.75334 17.1467,-29.612 41.4533,-56.40134 57.7067,-86.24534 14.0266,-25.75867 22.8266,-61.10267 41.1466,-83.90533 29.48,-36.65734 78.16,-52.43067 110.3867,-84.03067 32.8133,-32.176 25.9067,-67.59601 43.5867,-106.98134 2.5866,-5.75733 9.4133,-36.52267 15.0266,-37.28667 m -1102.8933,33.54 c 14.5866,-4.16 18.9466,16.46267 24.3866,24.632 17.7334,26.61201 17.7067,67.43601 34.0267,95.26134 41.5467,70.84534 41.72,157.52534 60.08,234.88534 11.1467,46.928 42.1467,82.48667 60.0133,126.92667 7.9867,19.89867 -8.3733,51.88667 3.2667,69.964 8.36,13.008 37.1067,-1.07333 49.12,7.324 77.5333,54.20934 179.6933,49.44001 261.4133,101.19734 24.2001,15.32666 64.6667,37.24536 74.1334,67.14796 3.08,9.7094 -15.56,27.7227 -20.5467,34.6814 -17.3733,24.28 -33.8,55.144 -46.28,82.52 -48.04,105.3187 -103.5067,209.8213 -116.88,323.712 -19,161.7733 -5.9067,329.8934 54.4,478.44 18.3067,45.0667 39.32,91.4 63.04,134.3867 10.44,18.92 29.08,42.1467 32.6534,64.6 11.6266,72.7867 -21.1334,116.4 -69.7467,165.1333 -15.12,15.1467 -38.88,42.0934 -59.56,48.16 -11.0667,3.24 -21.6134,-53.9333 -18.76,-59.2533 10.0666,-18.7333 41.2666,-37.2933 55.6666,-57.2933 29.2934,-40.7067 9.36,-94.92 -18.2666,-129.5867 -136.4667,-171.32 -190.9734,-354.4533 -243.68,-559.12 -2.7734,-10.7734 -21.0267,-24.12 -25.5067,-40.36 -10.72,-38.84 -14.3333,-80.2534 -27.48,-119.604 -13.12,-39.2374 -39.0933,-63.4747 -59.6133,-98.2134 -21.92,-37.1 -34.0134,-81.0746 -56.9467,-117.2986 -17.3733,-27.432 -42.1333,-58.6414 -49.7867,-91.4 -7.48,-32.0241 -19.3333,-72.8334 -19.32,-105.2841 0,-6.2133 -2.9333,-33.31463 4.4667,-35.19063 17.4933,-4.43866 76.2,48.22803 91.8933,19.968 21.8134,-39.308 -64.7733,-92.30267 -84.28,-120.376 -24.9333,-35.91733 -2.7466,-68.788 -2.7466,-105.73467 0,-107.832 19.84,-206.49201 35.6666,-309.34534 4.7334,-30.72 8.3334,-65.73467 8.3334,-95.98801 0,-8.652 -4.2134,-31.73733 6.84,-34.892 m 1713.0667,363.58001 c 8.12,0.06 3.6533,19.67067 4.5067,24.58401 3.5333,20.484 3.4266,52.86133 9.8,73.25733 12.16,38.992 9.76,80.59734 16.8666,121.40934 10.8134,62.16 30.1734,138.81866 17.4534,205.28136 -2.2934,11.9413 -18.3334,18.548 -24.2267,28.592 -8.5333,14.5307 -5.5467,34.3867 -13.6,47.184 -12.5867,20.008 -40.8533,34.4653 -41.36,60.3387 -0.16,8.7626 -3.9467,31.2653 4.5467,36.7253 12.2,7.8507 46.48,-9.536 48.36,0.7453 8.4266,45.9307 -8.48,84.0574 -17.7067,125.256 -4.64,20.7654 4.4667,44.472 -0.8267,64.952 -11.28,43.5334 -29.64,86.1334 -34.2,131.0134 -4.52,44.3733 -3.3866,78.4133 -17.16,120.0666 -2.64,7.9601 2.7867,18.6667 -3.1733,25.6934 -19.96,23.4667 -57.0267,26.8133 -82.04,40.2533 -82.9334,44.56 -208.5467,83.72 -305.76,68.72 -37.0134,-5.7066 -82.3867,-25.6 -118.72,-26.6666 -9.8667,-0.2934 -46.4934,-4.6934 -48.5334,-16.16 -1.44,-8.0667 40.56,-24.8267 49.5334,-30.56 34.8933,-22.28 72.3066,-72.3467 90.1466,-108.3601 10.8134,-21.8 18.0667,-48.9066 39.12,-63.5733 26.76,-18.6533 65.6934,-17.0933 90.6534,-47.3867 102.3333,-124.16 204.0533,-265.396 251.5333,-422.1026 21.96,-72.5014 27.7067,-157.70006 35.36,-233.29606 4.24,-41.876 2.84,-97.11067 24.2667,-133.65334 8.1867,-13.96533 6.08,-92.452 25.16,-92.31334 M 1205.6898,905.34367 c 15.9426,-6.408 42.7373,-1.32533 59.8533,-1.32533 56.36,0 103.2533,0.92666 154.7867,17.66133 74.8933,24.32267 159.08,30.88267 228.6133,74.356 57.1734,35.74263 111.0134,106.44133 155.7734,153.81073 17.4533,18.4773 2.7733,66.164 6.4933,90.1346 1.7333,11.2374 12.7867,21.4974 16.4933,32.2334 4.88,14.1026 7.2534,35.0093 27.24,38.144 17.6534,2.7693 29.5067,-8.188 43.9734,-8.188 10.8266,0 43.0133,21.7413 51.9466,2.852 7.6534,-16.1734 -13.04,-42.2054 -6.04,-52.1147 6.9734,-9.8733 27.9734,0.632 37.4934,-5.496 5.1466,-3.3093 13.88,-62.1693 13.8933,-70.06 0.067,-32.8893 0,-65.7773 0,-98.6667 0,-6.3987 -4.2933,-27.7653 3.1467,-30.732 5.3733,-2.1427 25.44,37.9213 29.5466,43.6587 31.8667,44.6493 58.6667,95.872 88.68,142.2013 34.5467,53.2974 73.3467,120.9947 98.64,178.684 14.3467,32.6947 21.3734,77.0147 38.7734,107.0414 7.6133,13.1333 20.84,14.8666 30.4,23.56 14.4,13.0933 22.6666,35.48 40.8266,47.9866 8.1867,5.6267 26.1334,-2.9466 31.3067,6.9334 4.8267,9.2 -0.4533,22.6 2,32.5466 7.92,32.12 16.8133,66.8134 26.8933,98.5867 29.4667,92.9734 62.7867,186.1067 106.68,275.72 21.04,42.9467 52.44,88.4934 81.1334,126.2134 19.6,25.76 47.5733,46.8 58.3066,78.5066 9.9467,29.3867 -31.24,79.2267 -56.8133,90.44 -24.2667,10.64 -76.72,-7.8533 -99.72,-15.1333 -56.76,-18 -115.76,-22.56 -168.6667,-56.84 -26.0933,-16.9067 -38.9066,-47.9067 -67.36,-65.4533 -133.8933,-82.5734 -301.56,-80.0134 -428.4933,-174.0534 -40.2267,-29.7866 -68.3733,-74.84 -93.48,-116.08 -13.1333,-21.5466 -29.3733,-38.1066 -39.1467,-62.0133 -3.4666,-8.48 -28.1866,-76.7867 -24.8933,-81.4534 5.2133,-7.4 40.0267,-2.32 48.9067,-2.32 37.76,0 175.24,-6.3866 141.32,-74.1733 -5.5067,-11.0133 -34.8534,-2.1067 -45.12,-5.3733 -48.2134,-15.28 -90.08,-17.7867 -142.8667,-17.7867 -17.6267,0 -48.72,6.5867 -61.48,-7.16 -27.8267,-29.9333 -36.36,-74.3467 -50.5067,-110.08 -35.2933,-89.1373 -53.4267,-183.7747 -88.2933,-274.444 -24.1334,-62.736 -97.92,-105.312 -120.2134,-167.328 -1.0133,-2.8187 43.9734,-20.5707 21.68,-46.768 -17.9733,-21.112 -49.3746,-14.2627 -71.5373,-21.892 -48.9267,-16.84269 -74.7173,-42.99469 -129.6493,-42.99469 -13.3947,0 -82.476,7.56133 -87.0907,-5.74134 -4.3147,-12.43466 21.432,-17.24933 30.0733,-20.93333 33.9107,-14.46 72.42,-12.96934 106.4974,-26.66667 m 2322.8134,204.55203 c 10.3333,-2.1747 -2.2,31.3933 -3.84,36.6427 -11.24,35.844 -12.4534,83.1173 -27.0934,117.0013 -28.0266,64.868 -33.36,166.284 -33.36,237.812 0,27 13.04,62.1733 7.4534,86.5467 -6.7734,29.5466 -41.44,71.6666 -58.16,97.7866 -28.1067,43.88 -69.12,105.5601 -126.6934,111.4801 -6.1866,0.64 -22.8533,2.8933 -25.7066,-4.3734 -6.7334,-17.0933 10.4133,-56.4133 15.56,-72.9067 10.0666,-32.2666 1.0933,-70.2 10.1733,-102.3333 13.08,-46.3067 18.7333,-99.32 25.5867,-146.9333 2.1466,-14.88 -5.1467,-34.7614 1.2533,-48.788 6.7867,-14.852 34.64,-26.2614 46.68,-39.3454 24.0133,-26.0893 53.4133,-70.3546 66.52,-103.996 17.4533,-44.8386 37.4667,-78.712 60.8133,-121.6133 6.9734,-12.8213 24.6267,-43.5693 40.8134,-46.98 m 644.5867,291.6507 c 5.68,-2.7867 -2.1734,43.6453 -2.2134,53.1386 -0.1733,37.4667 -25.1733,88.4934 -35.96,125.0134 -12.6533,42.8933 -57,77.8 -69.8266,119.1066 -11.08,35.6267 -10.2,73.8534 -18.76,110.3467 -16.3067,69.5067 -52.0134,153.5867 -90.04,215.8667 -7.4534,12.2 -44.64,72.6133 -56.0934,71.4533 -35.76,-3.6133 -47.1066,-42.88 -70.0266,-58.3733 -6.6267,-4.4667 -32.6801,-4.7867 -37.3467,2.48 -22.9867,35.7067 17.12,98.5067 36.24,125.4133 5.0667,7.1334 20.6933,10.0534 22.5867,17.1067 6.1733,23 -13.4534,30.1067 -23.32,42.8933 -5.24,6.7867 -4.9867,13.9467 -13.0534,19.4667 -36.0533,24.6933 -83.9067,26.6533 -124.2,39.44 -171.56,54.4267 -357.28,65.5733 -537.6,34.2 -56.5333,-9.84 -110.5467,-11.6133 -165.4667,-25.8533 -7.3466,-1.8934 -55.4,1.28 -53.3066,-14.4667 0.6933,-5.1333 39.24,-32.5733 45.8933,-39.3867 43.8933,-44.9466 92.12,-86.8933 133.76,-133.9066 35.7467,-40.3467 86.56,-112.36 100.88,-165.56 6.4267,-23.8267 17.8667,-46.0267 25.9467,-69.44 2.6533,-7.6667 -4,-23.0534 5.0266,-27.7867 16.2134,-8.5067 41.6667,11.9733 56.7867,15.44 53.16,12.1867 110.7467,34.5333 165.2133,36.5067 155.5734,5.6 300.9734,-39.3334 433.1067,-117.3734 21.3334,-12.5866 36.0534,-37.88 53.8934,-51.08 29.24,-21.6533 65.8666,-33.4933 88.2,-63.9733 24.6666,-33.6534 41.92,-87.5867 62.9333,-125.3467 17.4,-31.2667 33.1867,-118.86 66.7467,-135.3253 m -2403.2801,592.3253 c 7.1333,-1.28 36.5333,26.3467 45.3867,30.9734 43.9333,23.0133 87.8133,45.48 134.5466,63.1466 80.4934,30.4267 168.8667,39.1467 244.36,86.8267 10.9734,6.92 65.6667,29.0667 65.6667,42.5333 0,5.96 -33.2667,21.52 -39.2267,25.2534 -37.3866,23.3733 -64.5866,62 -103.48,83.56 -34.48,19.12 -109.5866,63.4 -148.8,54.6266 -49.1866,-11 -81.88,-49.7066 -127.2,-68.8 -38.44,-16.2 -106.5333,0.8534 -141,14.7067 -10.3466,4.16 -27.4533,-3.6533 -36.1733,4 -8.4533,7.4267 0.4933,21.2933 -5.1333,29.9733 -43.8801,67.6134 -49.4934,141.1334 -88.4001,212 -4.5466,8.2667 -12,32.5467 -20.04,36.6667 -21.48,11.0267 -39,-4.4933 -55.4533,22.9067 -7.2533,12.08 -6.3333,31.52 -11.9733,44.7866 -10.9334,25.8 -68.56,81.2 -97.3734,84.1334 -6.2666,0.64 -53.5466,2.4666 -50.2933,-6.0534 3.48,-9.1333 40.9467,-33.4266 50.48,-43.0933 35.9067,-36.4533 74.6933,-77.4267 96.2267,-124.32 24.88,-54.1867 50.2266,-113.96 63.0533,-171.7067 10.76,-48.4133 0.4533,-101.64 8.9733,-150.5733 7.9067,-45.4533 41.8134,-104.8 67.9201,-143.52 31.32,-46.4667 86.4533,-117.0133 147.9333,-128.0267 m 1989.3867,299.4667 c 14.5333,-5.9467 10.6533,10.4267 18.9067,14.6667 13.7066,7.04 42.8667,17.4133 58.12,19.68 23.4933,3.4933 68.0133,0.5333 89.32,11.2666 81.0533,40.8267 139.04,150.9467 147.8133,237.0934 5.9467,58.2933 -7.3733,127.08 19.3867,179.6533 18.84,37 58.3067,62.4267 98.1333,74 9.2267,2.6933 55.1467,-5 57.8534,5.4 0.24,0.9067 -66.32,45.44 -74.1734,48.8 -20.1733,8.6534 -54.5733,-10.1066 -73.1466,-16.2133 -62.4534,-20.5067 -119.1067,-82.4534 -117.1734,-155.6667 0.44,-16.4267 15.1734,-32.2133 17.6534,-48.08 7.5066,-47.9733 -15.5734,-105.72 -47.16,-140.12 -7.8934,-8.5867 -7.48,-21.2933 -20,-26.4667 -71.5067,-29.5066 -184.2401,-28.6133 -259.7334,-10.0133 -29.2667,7.2133 -56.2667,27.9467 -85.5867,34.7867 -67.68,15.8133 -178.56,5.9333 -243.6666,-9.32 -69.8267,-16.36 -133.8267,-68.1467 -184.6,-119.3734 -6.32,-6.3733 -53.4667,-38.3733 -49.3334,-45.6666 7.2934,-12.8667 34.0267,4.44 41.8534,5.68 38.8933,6.1733 88.48,9.24 126.5466,9.24 168.2134,0 327.0134,-7.1467 478.9867,-69.3467 m -930.9867,439.6267 c -49.2133,4.24 -87.6666,32 -109,74.8266 -5.08,10.2 -21.8667,34.1867 -12.0533,45.8801 7.4267,8.8533 47.72,10.36 59.72,12.0533 53.64,7.5467 130.8,35.88 183.9067,27.2933 15.8533,-2.56 11.44,-59.8933 4.7333,-69.7333 -31.72,-46.5067 -60.4,-96.08 -127.3067,-90.32 m -318.6667,10.32 c -46.56,4.6533 -96.1466,39.36 -112.9733,84.96 -4.3467,11.76 -12.1067,77.4 7.68,77.3733 25.0667,-0.053 41.9867,-14.2533 65.2933,-20.2266 36.6534,-9.4134 77.12,-12.3334 114.6667,-16.8667 14.3467,-1.7333 49.5333,4.5333 59.8533,-7.0933 10.96,-12.36 -7,-31.8134 -10.5733,-42.7467 -16,-48.9067 -73.2267,-80.48 -123.9467,-75.4 m 560.0001,124.7333 c -23.48,-0.6666 -31,27.3867 -19.4667,48.6534 31.7467,58.48 75.8133,159.3733 22.12,221.12 -15.9733,18.3733 -58.04,37.5466 -79.3467,53.2933 -36.64,27.0667 -81.6266,28.7467 -121.9733,45.7467 -8.5467,3.6 -36.6667,18.8666 -32.4,30.6133 0.96,2.64 75.1733,-9.4667 82.3867,-13.4667 19.04,-10.5466 43.32,-8.24 62.56,-18.4666 38.8266,-20.6667 77.4,-70.1334 127.3866,-58.9467 16.68,3.7333 32.3867,18.2933 48.2934,24.8 9.5733,3.9067 86.1333,19.8667 89.8666,6.2667 3.4,-12.3467 -29.7066,-12.1067 -35.2266,-13.9467 -27.8667,-9.3067 -54.7467,-25.0133 -83.1067,-34.12 -9.6133,-3.0933 -30.2267,4.4267 -36.5467,-5.44 -3.1066,-4.84 15.4534,-63.9867 15.4534,-78.1067 0,-28.12 8.0133,-70.44 -1,-97.0133 -14.5734,-42.9733 -39.3067,-64.3067 -39,-110.9867 m 197.3333,349.3334 c -25.52,13.28 14.2,63.1466 21.28,78.1866 18.3867,39.0667 65.4,59.48 84.9333,96.7067 15.9467,30.4 17.16,75.1067 27.5734,107.9733 4.4133,13.8934 -3.2534,31.1734 15.7466,37.4667 55.44,18.36 116.6667,-67.9333 167.4534,-5.76 0.96,1.1733 -26.4134,22.9733 -30.7734,27.2533 -25.7333,25.24 -81.9866,75.6 -13.8933,101.96 22.2667,8.6267 64.7467,0.2134 89.0133,0.2134 44.9067,0 77.6,-10.6667 118.6934,-17 29.1333,-4.5067 61.6933,6 90.32,-0.88 22.5733,-5.4267 43.56,-21.8 63.2133,-32.2534 27.88,-14.8266 44.9867,-24.0533 75.7067,-28.8666 4.0267,-0.6267 21.8533,-15.2667 23.4533,-4.5334 0.9867,6.6134 -10.2,12.04 -12.7333,17.5467 -5.8267,12.6933 7.6,49.7467 -6.9867,56.64 -21.32,10.08 -89.3866,3.56 -91.5733,38.6933 -0.8,12.92 -4.5467,39.24 3.32,50.04 10.68,14.68 61.6533,30.4667 48.44,57.5334 -4.5467,9.3066 -61.9467,-3.6134 -75.8533,-3.5867 -23.1067,0.053 -24.6934,-16.8267 -43.1467,-25.12 -37.2267,-16.72 -103.1334,-30.1867 -141.2934,-8.2 -33.0533,19.04 39.6,73.1067 50.1867,83.7333 5.44,5.4534 22.96,18.24 13.2267,26.9067 -11.2,9.9867 -22.2934,-4.7467 -32.3734,-6.32 -38.24,-5.9733 -65.7466,-39.2133 -106.6666,-44.0933 -11.2934,-1.3467 -50.1867,-5.68 -58.4534,2.5733 -5.2533,5.2533 1.1867,60.76 -8.72,56.1467 -7.12,-3.3067 -10.0666,-36.5067 -12.4533,-44.0934 -5.4667,-17.3733 -27.4,-41.4 -37.6,-57.0666 -13.88,-21.32 -42.48,-27.9067 -63.56,-38.72 -24.4133,-12.52 -45.5467,-35.3334 -64.9067,-55.0934 -15.8533,-16.2 -18.4,-47.36 -41.2266,-57.2 -40.68,-17.5333 -39.68,18.8534 -39.68,46.5467 0,4.7333 3.6133,33.1733 -6.24,28.8533 -37.3867,-16.4133 -12.7334,-54.6533 -11.1867,-79.52 1.3467,-21.72 -9.9467,-63.5066 -19.4667,-81.9866 -12.16,-23.5734 -48.8933,-75.9467 -76.5333,-82.6934 -19.6667,-4.8 -49.6667,7.5867 -67.4267,-1.4666 -16.8133,-8.56 -28.4133,-77.4134 -54.1333,-58.5734 -19.48,14.2534 7.4,44.4267 13.0667,55.5334 16.6,32.4533 38.4,65.4533 55.9733,97.84 5.1333,9.4666 23.36,22.2133 24.56,30.0533 1.52,9.88 9.9333,60.04 7.9467,64.9733 -3.56,8.84 -15.4267,3.2534 -21.6667,7.7334 -11.2,8.04 -17.36,42.3733 -11.36,54.6933 5.6667,11.64 33.08,23.5733 42.4533,36.7067 38.5067,53.9733 88.64,96.28 128.9334,145.8 17.1066,21 28.6266,50.3733 43.6,69.44 19.2933,24.5733 62.2266,51.7467 74.1333,76.9467 7,14.8266 -0.16,39.4133 1.5333,55.6 4.08,39.28 13.2934,80.0266 8.96,122.72 -1.5466,15.2933 -11.56,93.2266 -37.04,89.7733 -12.3066,-1.6667 -21.3333,-49.9467 -52.92,-20.5733 -14.2133,13.2133 -35.8,40.0933 -41.8,58.8133 -2.56,7.9733 3.5467,33.8133 -3.5733,38.1067 -7.1333,4.3066 -34.2133,-8.9334 -46.6667,-3.4534 -27.68,12.16 -85.4666,83.2667 -91.92,112.0667 -22.8933,102.0267 62.9867,150.9333 111.72,224.28 8.9867,13.5467 35.2134,81.0933 51.3867,82.5467 15.9467,1.4133 -11.72,-66.9734 -15.64,-73.2134 -35.4,-56.1733 -154.8933,-141.9733 -129.6933,-217.4666 9.2266,-27.6134 61.44,-97.6934 90.08,-109.08 12.7733,-5.08 27.7066,27.8666 47.44,6.4 7.1866,-7.8134 1.8666,-27.64 3.1333,-37.52 1.7467,-13.7334 33.0533,-63.6 47.8133,-66.56 18.76,-3.7734 1.68,65.3333 10.12,69.28 18.0667,8.4533 35.0534,-20.0134 40.5334,-31.7467 5.16,-11.0667 17.5333,-9.5467 23.28,-17.3333 9.7466,-13.24 17.7733,-49.68 19.0933,-66.9734 4.88,-64.0666 0.16,-124.7066 -14.7733,-185.3333 -3.2534,-13.24 3.3333,-39.08 -4.3334,-49.7867 -65.32,-91.2933 -156.4,-164.28 -221.9466,-258.48 -13.36,-19.2 -28.7467,-38.4267 -45.44,-54.96 -3.4267,-3.4 -19.6134,-9.1467 -19.72,-12.8933 -0.6534,-23.72 30.4266,-16.7067 32.72,-30.64 3.3733,-20.4667 -8.1867,-36.2667 -8.1867,-53.24 0,-13.7867 15.5467,-24.3467 6.64,-40.8534 -8.4267,-15.64 -24.7467,-16.8 -32.6533,-35.3866 -3.4267,-8.04 -20.9067,-49.4 -15.24,-54.28 25.4133,-21.88 54.1333,18.4933 70.1066,30.88 25.92,20.0933 56.6267,70.88 56.88,103.72 0.32,41.7466 -20.7733,74.8266 14.8667,110 41.4267,40.8666 39.92,-26.6534 39.92,-51.4134 0,-5.36 -2.5333,-30.84 8.9067,-23.2666 26.4133,17.4933 42.4133,60.8266 67.0933,84.44 38.8267,37.1466 83.08,44.7733 116.3467,90.2933 18.7733,25.6533 25.4666,94.2133 61.24,102.0667 32.9333,7.24 4.3866,-81.1467 18.6,-85.9734 56.4666,-19.2266 106.3066,60.1334 157.1466,60.44 10.04,0.053 50.8534,5.72 55.8534,-3.4133 16.4,-30 -37.92,-75.2 -55.9334,-93.1733 -4.4533,-4.44 -30.1333,-21.6667 -27.8266,-24.24 6.1066,-6.8267 22.4666,-1.2134 30.56,-2.0267 26.6133,-2.6533 49.4933,-4.8933 76.9733,10.2133 10.2934,5.6534 16,20.0267 27.36,23.76 17.6134,5.8 38.8934,-2.6133 56.9467,1.4267 11.3067,2.5333 61.2933,22.52 69.0267,3.12 11.6933,-29.32 -3.9467,-58.3467 -24.1467,-77.1467 -11.24,-10.4533 -29.9067,-9.6933 -27.7867,-30.5066 4.5334,-44.4667 78.6934,-17.8134 101.08,-29.36 10.04,-5.1734 4.52,-41.9334 4.56,-51.9867 0.093,-18.84 51.5467,-67.4667 23.9867,-94.5067 -18.12,-17.7866 -44.4133,7.4934 -53.9867,13.76 -11.6133,7.6 -31.8266,5.3067 -44.12,11.5734 -10.28,5.2266 -15.2933,19.3733 -28.7333,24.3733 -31.24,11.6 -56.4267,36.6533 -89.2667,44.6533 -28.9867,7.0667 -62.6133,-6.3733 -91.76,0.8 -48.1733,11.8667 -115.04,33.7067 -168.0267,17.1334 -6.2266,-1.9467 -33.8266,-25.12 -30.9333,-31.96 3.5333,-8.3334 21.9733,-0.3334 28.6133,-5.1067 9.0134,-6.4533 37.48,-19.6933 44.7067,-26.64 6.8133,-6.5333 1.2,-15.0533 17.84,-24.0133 6.5333,-3.52 59.6133,3.1866 43.6667,-15.6667 -30.4134,-35.96 -123.2667,-79.6533 -170.6534,-67.64 -16.5733,4.1867 -51.92,48.8 -58.5333,46.48 -31.1867,-10.9333 -24.6933,-91.48 -33.0133,-117 -22.88,-70.1467 -104.9867,-115.0933 -133.7867,-185.5733 m 74.6667,1169.3333 c 10.92,-2.5333 2.1466,-10.5333 0,0 m -503.1067,161.9467 c -6.3867,4.6133 -1.6667,13.16 4.5333,14.72 15.2934,3.88 32.7734,-3.28 47.7867,0.5733 12.56,3.2134 39.0667,44.2534 43.5733,55.9467 2.44,6.3333 22.8534,38.7067 30.0934,35.0933 19.9866,-9.96 -8.5867,-44.1466 -12.2667,-52.4266 -15.52,-34.7734 -70.4133,-85.28 -113.72,-53.9067 m 141.7733,115.3867 v 2.6666 c 26.0134,12.2934 85.3467,108.8 76.4534,137.24 -10.2134,32.6267 -49.12,61.9067 -66.0534,92.0934 -14.0666,25.0533 -13.0666,57.8133 -13.0666,86.6666 0,6.56 -3.2534,25.84 3.56,29.6134 9.0133,5.0266 20.68,-10.48 22.5466,-17.64 6.7734,-25.8534 8.0534,-62.1467 8.5734,-89.3067 0.6533,-33.64 48.68,-50.2667 61.1333,-81.56 16.9467,-42.6 -39.8,-180.6667 -93.1467,-159.7733 m 330.0934,147.7866 c -7.72,1.12 9.56,19.8267 10.7866,22.96 8.84,22.7467 34.8534,51.92 36.36,75.9334 2.6267,42.08 -6.4933,123.5067 29.44,154.0667 15.4534,13.1466 39.4934,13.0933 55.5067,22.28 17.8667,10.2533 32.6933,28.5066 50.1467,39.68 6.76,4.3333 25.7866,7.3866 29.7733,14.0666 5.6267,9.4667 -21.6533,38.3467 -30.2267,41.0134 -22.5733,7.0266 -41.8266,-8.4534 -63.88,-8.4534 -13.6933,0 -49.0933,9.0934 -58.36,6.5067 -8.52,-2.3733 -16,-19.4267 -27.1733,-22.96 -52.8267,-16.76 -132.2667,-26.7333 -144.72,-98.28 -10.2933,-59.0934 29.1867,-104.2934 9.8,-165.4667 -4.5867,-14.4533 1.1067,-31.04 -13.96,-41.8667 -5.7333,-4.1066 -29.5333,-4.1733 -35.24,0.013 -10.84,7.92 -18.32,33.76 -32.6133,45.1333 -25.1067,19.9867 -60.8667,30.9467 -85.8667,51 -8.28,6.64 -39.9067,34.48 -22.9733,46.4933 11.0533,7.8534 27.4266,-15.8133 34.0533,-22.36 27.2533,-26.92 72.4,-37.2 99.5333,-64.1066 3.8534,-3.8267 26.7334,-38.08 25.44,-38.08 14.3734,-0.013 11.56,36.2666 14.7334,43.4933 21.16,48.0133 -19.24,108.2 -9.7734,164.4267 12.3734,73.44 92.5734,76.56 144.3067,97.3733 15.8133,6.3734 21.92,25.4934 37.48,28.9467 15.1733,3.36 34.12,-6 49.2133,-3.0133 25.08,4.96 74.52,20.6533 100.7734,6.5066 16.0666,-8.68 80.28,-61.6666 62.9866,-83.4133 -13.5733,-17.08 -33.9733,1.2 -45.9866,-4.4533 -25.5867,-12.0267 -44.7867,-33.68 -68.7867,-48.64 -36.5067,-22.7467 -53.6933,-18.5734 -76.16,-60.4001 -5.6533,-10.52 1.3733,-23.2133 -1.8,-33.9466 -11.4267,-38.64 -11.9067,-77.88 -24.8,-117.56 -5.12,-15.7867 -27.04,-49.9334 -48.0133,-46.8934 z"
       style="fill:#ffffff;stroke:none;stroke-width:1.33333" />
  </g>
</svg>
